<svg width="1360" height="968" viewBox="0 0 1360 968" fill="none" xmlns="http://www.w3.org/2000/svg">
<rect width="1360" height="968" fill="white"/>
<g clip-path="url(#clip0_282_655)">
<mask id="mask0_282_655" style="mask-type:luminance" maskUnits="userSpaceOnUse" x="-1" y="-1" width="1362" height="969">
<path d="M-0.138672 -0.203369V968H1360.15V-0.203369H-0.138672Z" fill="white"/>
</mask>
<g mask="url(#mask0_282_655)">
<path d="M1307.78 92.9978L1394.94 85.8191L1377.99 3.67268H1299.71L1307.78 92.9978Z" stroke="#938D8D" stroke-opacity="0.15" stroke-miterlimit="10" stroke-linejoin="round"/>
<path d="M1212.95 101.615L1297.29 97.0187L1285.18 -1.49664H1201.25L1212.95 101.615Z" stroke="#938D8D" stroke-opacity="0.15" stroke-miterlimit="10" stroke-linejoin="round"/>
<path d="M1237.56 164.515L1221.02 109.37L1400.19 97.5937V146.135L1237.56 164.515Z" stroke="#938D8D" stroke-opacity="0.15" stroke-miterlimit="10" stroke-linejoin="round"/>
<path d="M1267.42 278.542L1332.8 270.213L1291.24 168.25L1256.53 179.452L1239.18 190.367L1267.42 278.542Z" stroke="#938D8D" stroke-opacity="0.15" stroke-miterlimit="10" stroke-linejoin="round"/>
<path d="M1341.68 269.638L1310.6 164.516L1409.87 154.177L1426.42 262.746L1341.68 269.638Z" stroke="#938D8D" stroke-opacity="0.15" stroke-miterlimit="10" stroke-linejoin="round"/>
<path d="M1348.27 280.457L1367.37 337.9C1367.37 337.9 1380.55 333.495 1384.04 325.837C1389.3 314.335 1369.79 278.542 1369.79 278.542L1348.27 280.457Z" stroke="#938D8D" stroke-opacity="0.15" stroke-miterlimit="10" stroke-linejoin="round"/>
<path d="M1278.32 389.792L1353.38 340.964L1334.55 281.415L1278.32 288.499C1278.32 288.499 1285.81 322.452 1285.99 333.879C1286.21 347.924 1278.32 389.792 1278.32 389.792Z" stroke="#938D8D" stroke-opacity="0.15" stroke-miterlimit="10" stroke-linejoin="round"/>
<path d="M1321.63 376.579L1356.61 396.303V349.007L1321.63 376.579Z" stroke="#938D8D" stroke-opacity="0.15" stroke-miterlimit="10" stroke-linejoin="round"/>
<path d="M1272.4 411.812L1348.27 471.362L1356.61 405.493L1314.51 380.434L1272.4 411.812Z" stroke="#938D8D" stroke-opacity="0.15" stroke-miterlimit="10" stroke-linejoin="round"/>
<path d="M1356.34 876.534L1362.52 803.196H1429.78V876.534H1356.34Z" stroke="#938D8D" stroke-opacity="0.15" stroke-miterlimit="10" stroke-linejoin="round"/>
<path d="M1356.34 886.49V957.338H1426.28V890.895L1356.34 886.49Z" stroke="#938D8D" stroke-opacity="0.15" stroke-miterlimit="10" stroke-linejoin="round"/>
<path d="M1358.49 995.824L1362.79 964.422L1426.28 970.55V995.824H1358.49Z" stroke="#938D8D" stroke-opacity="0.15" stroke-miterlimit="10" stroke-linejoin="round"/>
<path d="M1333.2 757.625V794.006H1349.34V757.625H1333.2Z" stroke="#938D8D" stroke-opacity="0.15" stroke-miterlimit="10" stroke-linejoin="round"/>
<path d="M1314.1 738.667V752.645H1349.34V738.667H1314.1Z" stroke="#938D8D" stroke-opacity="0.15" stroke-miterlimit="10" stroke-linejoin="round"/>
<path d="M1308.45 757.625H1323.79V794.006L1251.42 799.75L1308.45 757.625Z" stroke="#938D8D" stroke-opacity="0.15" stroke-miterlimit="10" stroke-linejoin="round"/>
<path d="M1240.66 794.006L1306.84 752.645V743.263L1239.58 749.007L1240.66 794.006Z" stroke="#938D8D" stroke-opacity="0.15" stroke-miterlimit="10" stroke-linejoin="round"/>
<path d="M1181.47 750.922H1230.17L1233.39 798.219L1184.97 800.706L1181.47 750.922Z" stroke="#938D8D" stroke-opacity="0.15" stroke-miterlimit="10" stroke-linejoin="round"/>
<path d="M1136.98 756.291L1167.48 751.88V795.729L1138.97 802.623L1136.98 756.291Z" stroke="#938D8D" stroke-opacity="0.15" stroke-miterlimit="10" stroke-linejoin="round"/>
<path d="M1143.27 813.153L1150.8 853.555L1233.39 846.28V809.707L1143.27 813.153Z" stroke="#938D8D" stroke-opacity="0.15" stroke-miterlimit="10" stroke-linejoin="round"/>
<path d="M1242.81 845.705L1282.36 843.982L1277.24 809.707H1242.81V845.705Z" stroke="#938D8D" stroke-opacity="0.15" stroke-miterlimit="10" stroke-linejoin="round"/>
<path d="M1290.43 843.407L1319.21 841.492L1321.37 808.175H1285.05L1290.43 843.407Z" stroke="#938D8D" stroke-opacity="0.15" stroke-miterlimit="10" stroke-linejoin="round"/>
<path d="M1220.75 902.767V856.045L1314.1 848.77V903.915L1220.75 902.767Z" stroke="#938D8D" stroke-opacity="0.15" stroke-miterlimit="10" stroke-linejoin="round"/>
<path d="M1226.4 947.571L1223.17 909.275H1309.53L1314.1 947.571H1226.4Z" stroke="#938D8D" stroke-opacity="0.15" stroke-miterlimit="10" stroke-linejoin="round"/>
<path d="M1233.39 978.017L1234.74 959.443H1314.1V977.252L1233.39 978.017Z" stroke="#938D8D" stroke-opacity="0.15" stroke-miterlimit="10" stroke-linejoin="round"/>
<path d="M1155.65 954.274V980.123L1223.17 981.465V954.274H1155.65Z" stroke="#938D8D" stroke-opacity="0.15" stroke-miterlimit="10" stroke-linejoin="round"/>
<path d="M1161.56 947.571H1219.41L1214.03 907.936L1161.56 912.532V947.571Z" stroke="#938D8D" stroke-opacity="0.15" stroke-miterlimit="10" stroke-linejoin="round"/>
<path d="M1161.56 899.318L1152.23 859.299L1211.87 856.812L1212.95 899.318H1161.56Z" stroke="#938D8D" stroke-opacity="0.15" stroke-miterlimit="10" stroke-linejoin="round"/>
<path d="M1093.91 942.019L1088.26 865.043L1132.65 860.736L1147.58 946.328L1093.91 942.019Z" stroke="#938D8D" stroke-opacity="0.15" stroke-miterlimit="10" stroke-linejoin="round"/>
<path d="M1088.26 978.017H1136.98V954.274L1093.51 948.913L1088.26 978.017Z" stroke="#938D8D" stroke-opacity="0.15" stroke-miterlimit="10" stroke-linejoin="round"/>
<path d="M982.374 975.663L983.364 941.87L1084.22 947.571L1076.96 975.337L982.374 975.663Z" stroke="#938D8D" stroke-opacity="0.15" stroke-miterlimit="10" stroke-linejoin="round"/>
<path d="M983.742 935.7L981.49 874.602L1071.31 866.48L1088.26 938.859L983.742 935.7Z" stroke="#938D8D" stroke-opacity="0.15" stroke-miterlimit="10" stroke-linejoin="round"/>
<path d="M977.598 869.175L950.441 824.465L1064.85 820.239L1071.31 860.736L977.598 869.175Z" stroke="#938D8D" stroke-opacity="0.15" stroke-miterlimit="10" stroke-linejoin="round"/>
<path d="M1082.21 855.567L1078.17 820.239L1133.86 818.802L1135.47 853.555L1082.21 855.567Z" stroke="#938D8D" stroke-opacity="0.15" stroke-miterlimit="10" stroke-linejoin="round"/>
<path d="M997.867 809.707L970.831 762.507L1124.58 757.625V803.866L997.867 809.707Z" stroke="#938D8D" stroke-opacity="0.15" stroke-miterlimit="10" stroke-linejoin="round"/>
<path d="M944.354 818.353L988.587 812.483L948.233 742.688L901.438 750.148L944.354 818.353Z" stroke="#938D8D" stroke-opacity="0.15" stroke-miterlimit="10" stroke-linejoin="round"/>
<path d="M996.926 757.625V735.604L1321.37 709.947L1323.61 677.281L1349.35 677.761L1349.34 732.158L996.926 757.625Z" stroke="#938D8D" stroke-opacity="0.15" stroke-miterlimit="10" stroke-linejoin="round"/>
<path d="M1243.49 708.934L1240.26 676.773L1311.03 678.248L1310.81 704.381L1243.49 708.934Z" stroke="#938D8D" stroke-opacity="0.15" stroke-miterlimit="10" stroke-linejoin="round"/>
<path d="M1088.26 717.989L1084.37 674.696L1230.32 676.547L1233.39 709.947L1088.26 717.989Z" stroke="#938D8D" stroke-opacity="0.15" stroke-miterlimit="10" stroke-linejoin="round"/>
<path d="M895.878 742.228L854.773 677.794L1071.69 674.222L1076.15 719.998L895.878 742.228Z" stroke="#938D8D" stroke-opacity="0.15" stroke-miterlimit="10" stroke-linejoin="round"/>
<path d="M1190.35 656.788V650.779H1223.04L1341.27 590.463L1349.23 657.255L1190.35 656.788Z" stroke="#938D8D" stroke-opacity="0.15" stroke-miterlimit="10" stroke-linejoin="round"/>
<path d="M1195.2 642.45L1186.95 594.199L1273.21 551.975L1317.87 590.463L1225.86 642.45H1195.2Z" stroke="#938D8D" stroke-opacity="0.15" stroke-miterlimit="10" stroke-linejoin="round"/>
<path d="M1326.34 586.155L1292.85 539.337L1349.34 485.053L1348.27 576.676L1326.34 586.155Z" stroke="#938D8D" stroke-opacity="0.15" stroke-miterlimit="10" stroke-linejoin="round"/>
<path d="M1308.59 510.616V488.213L1321.1 460.352L1345.31 478.734L1308.59 510.616Z" stroke="#938D8D" stroke-opacity="0.15" stroke-miterlimit="10" stroke-linejoin="round"/>
<path d="M1292.85 493.095L1256.53 427.322L1266.21 415.258L1315.85 454.178L1292.85 493.095Z" stroke="#938D8D" stroke-opacity="0.15" stroke-miterlimit="10" stroke-linejoin="round"/>
<path d="M1249.67 431.343L1290.83 518.467L1225.81 461.575L1249.67 431.343Z" stroke="#938D8D" stroke-opacity="0.15" stroke-miterlimit="10" stroke-linejoin="round"/>
<path d="M1277.04 536.752L1290.83 527.273L1221.09 468.301L1206.83 483.394L1277.04 536.752Z" stroke="#938D8D" stroke-opacity="0.15" stroke-miterlimit="10" stroke-linejoin="round"/>
<path d="M1198.42 493.095L1261.78 546.806L1045.89 646.183L1198.42 493.095Z" stroke="#938D8D" stroke-opacity="0.15" stroke-miterlimit="10" stroke-linejoin="round"/>
<path d="M1051.94 655.375H1181.47L1174.81 599.515L1051.94 655.375Z" stroke="#938D8D" stroke-opacity="0.15" stroke-miterlimit="10" stroke-linejoin="round"/>
<path d="M1009.17 658.246L997.22 573.056L1076.15 568.348L1104.8 572.942L1028.94 658.246H1009.17Z" stroke="#938D8D" stroke-opacity="0.15" stroke-miterlimit="10" stroke-linejoin="round"/>
<path d="M1119.06 551.975L1240.12 426.747H1181.47L1170.44 454.178L1116.71 427.897L1119.06 551.975Z" stroke="#938D8D" stroke-opacity="0.15" stroke-miterlimit="10" stroke-linejoin="round"/>
<path d="M1116.71 414.494V343.262L1163.45 298.456H1183.9L1166.95 444.364L1116.71 414.494Z" stroke="#938D8D" stroke-opacity="0.15" stroke-miterlimit="10" stroke-linejoin="round"/>
<path d="M1187.12 419.088H1232.72V326.03L1193.85 298.456L1187.12 419.088Z" stroke="#938D8D" stroke-opacity="0.15" stroke-miterlimit="10" stroke-linejoin="round"/>
<path d="M1243.62 378.686H1269.44L1254.38 416.503H1246.31L1243.62 378.686Z" stroke="#938D8D" stroke-opacity="0.15" stroke-miterlimit="10" stroke-linejoin="round"/>
<path d="M1241.73 327.753H1269.44L1268.1 370.452H1240.12L1241.73 327.753Z" stroke="#938D8D" stroke-opacity="0.15" stroke-miterlimit="10" stroke-linejoin="round"/>
<path d="M1207.57 296.158L1239.18 320.476H1265.14V291.18L1207.57 296.158Z" stroke="#938D8D" stroke-opacity="0.15" stroke-miterlimit="10" stroke-linejoin="round"/>
<path d="M1150.3 291.18L1143.54 185.196H1224.25L1249.27 278.542L1150.3 291.18Z" stroke="#938D8D" stroke-opacity="0.15" stroke-miterlimit="10" stroke-linejoin="round"/>
<path d="M1107.63 301.232L1120.14 185.196L1133.45 283.713L1107.63 301.232Z" stroke="#938D8D" stroke-opacity="0.15" stroke-miterlimit="10" stroke-linejoin="round"/>
<path d="M1112.47 173.421V110.807L1196.41 114.253L1216.98 168.25L1112.47 173.421Z" stroke="#938D8D" stroke-opacity="0.15" stroke-miterlimit="10" stroke-linejoin="round"/>
<path d="M1112.47 101.615L1081.4 -18.4424L1166.95 -11.2618L1201.25 101.615H1112.47Z" stroke="#938D8D" stroke-opacity="0.15" stroke-miterlimit="10" stroke-linejoin="round"/>
<path d="M951.056 178.015L933.705 105.636L1095.93 103.338V170.262L951.056 178.015Z" stroke="#938D8D" stroke-opacity="0.15" stroke-miterlimit="10" stroke-linejoin="round"/>
<path d="M1053.55 90.9882L1091.89 87.8286L1064.45 -16.7192L1041.85 -22.7499L1053.55 90.9882Z" stroke="#938D8D" stroke-opacity="0.15" stroke-miterlimit="10" stroke-linejoin="round"/>
<path d="M987.376 94.4343L1041.85 90.9882L1027.32 -25.0479L984.953 -22.7499L987.376 94.4343Z" stroke="#938D8D" stroke-opacity="0.15" stroke-miterlimit="10" stroke-linejoin="round"/>
<path d="M933.705 89.5518L984.952 84.3826L972.041 -22.7498L917.159 -14.7076L933.705 89.5518Z" stroke="#938D8D" stroke-opacity="0.15" stroke-miterlimit="10" stroke-linejoin="round"/>
<path d="M962.76 315.307L959.532 247.235H1086.64V289.744L962.76 315.307Z" stroke="#938D8D" stroke-opacity="0.15" stroke-miterlimit="10" stroke-linejoin="round"/>
<path d="M957.513 238.188L953.074 188.93L1095.93 185.196L1093.51 243.214L957.513 238.188Z" stroke="#938D8D" stroke-opacity="0.15" stroke-miterlimit="10" stroke-linejoin="round"/>
<path d="M1048.61 434.882L1043.06 320.476L1086.64 315.307V436.084L1048.61 434.882Z" stroke="#938D8D" stroke-opacity="0.15" stroke-miterlimit="10" stroke-linejoin="round"/>
<path d="M998.58 436.326L1030.69 435.122L1024.5 329.379L994.639 333.689L998.58 436.326Z" stroke="#938D8D" stroke-opacity="0.15" stroke-miterlimit="10" stroke-linejoin="round"/>
<path d="M996.926 562.029V448.823L1086.64 451.448V556.857L996.926 562.029Z" stroke="#938D8D" stroke-opacity="0.15" stroke-miterlimit="10" stroke-linejoin="round"/>
<path d="M950.251 630.673L987.376 633.258L984.148 450.873L950.251 454.608V630.673Z" stroke="#938D8D" stroke-opacity="0.15" stroke-miterlimit="10" stroke-linejoin="round"/>
<path d="M944.196 441.396L987.376 437.375L982.532 357.815L944.196 441.396Z" stroke="#938D8D" stroke-opacity="0.15" stroke-miterlimit="10" stroke-linejoin="round"/>
<path d="M850.579 660.927C850.579 660.927 825.071 579.6 822.063 551.975C819.593 529.295 825.83 461.022 825.83 461.022L937.206 458.724V638.714L975.944 642.16L985.091 658.244L850.579 660.927Z" stroke="#938D8D" stroke-opacity="0.15" stroke-miterlimit="10" stroke-linejoin="round"/>
<path d="M817.757 450.873L807.535 349.198L872.638 341.156L877.48 432.779L933.705 430.386V444.364L817.757 450.873Z" stroke="#938D8D" stroke-opacity="0.15" stroke-miterlimit="10" stroke-linejoin="round"/>
<path d="M882.86 424.642V396.014L937.742 394.005L929.133 421.577L882.86 424.642Z" stroke="#938D8D" stroke-opacity="0.15" stroke-miterlimit="10" stroke-linejoin="round"/>
<path d="M882.86 386.728V341.156L985.089 329.379L955.495 386.728H882.86Z" stroke="#938D8D" stroke-opacity="0.15" stroke-miterlimit="10" stroke-linejoin="round"/>
<path d="M689.166 710.328L693.469 734.838L620.296 722.583L689.166 710.328Z" stroke="#938D8D" stroke-opacity="0.15" stroke-miterlimit="10" stroke-linejoin="round"/>
<path d="M699.927 710.328L723.602 708.413L726.292 722.583H757.496L754.27 742.688L705.846 734.838L699.927 710.328Z" stroke="#938D8D" stroke-opacity="0.15" stroke-miterlimit="10" stroke-linejoin="round"/>
<path d="M733.285 717.989H752.654L749.964 701.904L733.285 708.413V717.989Z" stroke="#938D8D" stroke-opacity="0.15" stroke-miterlimit="10" stroke-linejoin="round"/>
<path d="M765.029 742.688L757.495 698.456L825.288 682.756L862.92 740.036L841.97 757.625L765.029 742.688Z" stroke="#938D8D" stroke-opacity="0.15" stroke-miterlimit="10" stroke-linejoin="round"/>
<path d="M870.62 827.131L915.03 821.989L868.7 749.716L857.439 758.773L860.262 801.138L870.62 827.131Z" stroke="#938D8D" stroke-opacity="0.15" stroke-miterlimit="10" stroke-linejoin="round"/>
<path d="M868.333 835.891L918.68 829.334L944.261 873.98L878.421 878.543L868.333 835.891Z" stroke="#938D8D" stroke-opacity="0.15" stroke-miterlimit="10" stroke-linejoin="round"/>
<path d="M952.933 879.432L958.234 886.849L958.819 902.538L885.08 908.559L878.22 883.569L952.933 879.432Z" stroke="#938D8D" stroke-opacity="0.15" stroke-miterlimit="10" stroke-linejoin="round"/>
<path d="M887.098 913.871V929.094L925.836 933.977L922.105 910.569L887.098 913.871Z" stroke="#938D8D" stroke-opacity="0.15" stroke-miterlimit="10" stroke-linejoin="round"/>
<path d="M939.556 933.977L936.126 908.559H958.8L959.48 933.977H939.556Z" stroke="#938D8D" stroke-opacity="0.15" stroke-miterlimit="10" stroke-linejoin="round"/>
<path d="M894.766 938.859L898.196 975.337H958.12V945.61L894.766 938.859Z" stroke="#938D8D" stroke-opacity="0.15" stroke-miterlimit="10" stroke-linejoin="round"/>
<path d="M801.954 936.418H881.248L887.098 977.634H870.351L801.954 936.418Z" stroke="#938D8D" stroke-opacity="0.15" stroke-miterlimit="10" stroke-linejoin="round"/>
<path d="M775.521 932.11L767.652 897.212L865.509 886.156L870.552 926.653L775.521 932.11Z" stroke="#938D8D" stroke-opacity="0.15" stroke-miterlimit="10" stroke-linejoin="round"/>
<path d="M763.618 849.534L851.79 842.067L863.29 881.273L765.432 890.033L763.618 849.534Z" stroke="#938D8D" stroke-opacity="0.15" stroke-miterlimit="10" stroke-linejoin="round"/>
<path d="M739.742 909.132L754.805 900.277V842.067L861.609 833.258L850.579 797.069L850.846 771.986L712.838 742.688L739.742 909.132Z" stroke="#938D8D" stroke-opacity="0.15" stroke-miterlimit="10" stroke-linejoin="round"/>
<path d="M742.97 975.337L739.203 925.935H759.111L829.594 970.166L742.97 975.337Z" stroke="#938D8D" stroke-opacity="0.15" stroke-miterlimit="10" stroke-linejoin="round"/>
<path d="M648.274 973.231V922.105L725.753 925.934L731.403 973.231H648.274Z" stroke="#938D8D" stroke-opacity="0.15" stroke-miterlimit="10" stroke-linejoin="round"/>
<path d="M632.403 861.022L649.89 915.978L727.635 917.701L717.144 851.257L632.403 861.022Z" stroke="#938D8D" stroke-opacity="0.15" stroke-miterlimit="10" stroke-linejoin="round"/>
<path d="M633.746 853.555L671.949 848.386L659.842 823.876L625.407 825.911L633.746 853.555Z" stroke="#938D8D" stroke-opacity="0.15" stroke-miterlimit="10" stroke-linejoin="round"/>
<path d="M667.107 819.664L677.059 848.959L716.067 845.321L712.838 815.068L667.107 819.664Z" stroke="#938D8D" stroke-opacity="0.15" stroke-miterlimit="10" stroke-linejoin="round"/>
<path d="M614.377 794.198H648.274L652.041 816.791L622.716 820.239L614.377 794.198Z" stroke="#938D8D" stroke-opacity="0.15" stroke-miterlimit="10" stroke-linejoin="round"/>
<path d="M655.806 815.068L653.654 789.026H611.956L595.816 730.817L625.407 729.669L697.237 744.603L707.458 811.622L655.806 815.068Z" stroke="#938D8D" stroke-opacity="0.15" stroke-miterlimit="10" stroke-linejoin="round"/>
<path d="M417.846 865.046L436.815 707.091L581.422 734.838L616.126 817.079L632.403 902.097L417.846 865.046Z" stroke="#938D8D" stroke-opacity="0.15" stroke-miterlimit="10" stroke-linejoin="round"/>
<path d="M558.824 979.07L563.668 912.723L625.6 925.65L623.56 979.07H558.824Z" stroke="#938D8D" stroke-opacity="0.15" stroke-miterlimit="10" stroke-linejoin="round"/>
<path d="M455.924 975.337L445.046 891.067L553.705 911.039L548.736 977.347L455.924 975.337Z" stroke="#938D8D" stroke-opacity="0.15" stroke-miterlimit="10" stroke-linejoin="round"/>
<path d="M383.503 878.712L426.626 886.76L445.432 962.699L383.503 878.712Z" stroke="#938D8D" stroke-opacity="0.15" stroke-miterlimit="10" stroke-linejoin="round"/>
<path d="M384.54 869.506L402.372 766.24L328.407 784.911L384.54 869.506Z" stroke="#938D8D" stroke-opacity="0.15" stroke-miterlimit="10" stroke-linejoin="round"/>
<path d="M365.13 765.667V718.275L410.298 726.519L405.095 752.597L365.13 765.667Z" stroke="#938D8D" stroke-opacity="0.15" stroke-miterlimit="10" stroke-linejoin="round"/>
<path d="M365.13 714.829V692.426L414.226 706.841L411.283 721.58L365.13 714.829Z" stroke="#938D8D" stroke-opacity="0.15" stroke-miterlimit="10" stroke-linejoin="round"/>
<path d="M289.669 748.432L315.495 780.028L348.989 770.263L357.865 699.606L301.37 692.426L289.669 748.432Z" stroke="#938D8D" stroke-opacity="0.15" stroke-miterlimit="10" stroke-linejoin="round"/>
<path d="M238.824 759.348L252.141 684.384L287.651 692.426L277.968 749.869L238.824 759.348Z" stroke="#938D8D" stroke-opacity="0.15" stroke-miterlimit="10" stroke-linejoin="round"/>
<path d="M173.857 753.89L227.928 765.667V688.98L199.681 684.384L173.857 753.89Z" stroke="#938D8D" stroke-opacity="0.15" stroke-miterlimit="10" stroke-linejoin="round"/>
<path d="M102.43 736.226L109.695 675.192L189.19 688.98L165.787 748.146L102.43 736.226Z" stroke="#938D8D" stroke-opacity="0.15" stroke-miterlimit="10" stroke-linejoin="round"/>
<path d="M282.407 755.135L456.193 998.697L357.865 1030.1L268.953 953.507L227.928 774.665L282.407 755.135Z" stroke="#938D8D" stroke-opacity="0.15" stroke-miterlimit="10" stroke-linejoin="round"/>
<path d="M179.101 915.978L238.824 935.7L251.2 929.764L233.444 874.619L191.477 865.81L179.101 915.978Z" stroke="#938D8D" stroke-opacity="0.15" stroke-miterlimit="10" stroke-linejoin="round"/>
<path d="M168.879 982.229L179.101 932.445L263.239 962.699V977.347L168.879 982.229Z" stroke="#938D8D" stroke-opacity="0.15" stroke-miterlimit="10" stroke-linejoin="round"/>
<path d="M94.0903 892.618V847.428L179.101 865.81L168.879 911.382L94.0903 892.618Z" stroke="#938D8D" stroke-opacity="0.15" stroke-miterlimit="10" stroke-linejoin="round"/>
<path d="M94.0903 902.097L173.857 924.02L157.58 982.229L86.02 971.506L94.0903 902.097Z" stroke="#938D8D" stroke-opacity="0.15" stroke-miterlimit="10" stroke-linejoin="round"/>
<path d="M90.864 678.926L94.0899 759.348L20.3779 761.262L26.2967 673.182L90.864 678.926Z" stroke="#938D8D" stroke-opacity="0.15" stroke-miterlimit="10" stroke-linejoin="round"/>
<path d="M-81.9836 717.222L-124.353 684.384L-87.2277 648.769L-18.6293 660.832L6.38922 684.384L-81.9836 717.222Z" stroke="#938D8D" stroke-opacity="0.15" stroke-miterlimit="10" stroke-linejoin="round"/>
<path d="M-23.2019 650.97L-30.1978 612.674L-7.33071 599.271L39.2112 657.864L-23.2019 650.97Z" stroke="#938D8D" stroke-opacity="0.15" stroke-miterlimit="10" stroke-linejoin="round"/>
<path d="M12.8464 603.101L4.50684 586.633L55.3681 552.294L94.09 570.549V590.463L12.8464 603.101Z" stroke="#938D8D" stroke-opacity="0.15" stroke-miterlimit="10" stroke-linejoin="round"/>
<path d="M16.6138 616.504L42.4402 647.141L66.1123 603.101L16.6138 616.504Z" stroke="#938D8D" stroke-opacity="0.15" stroke-miterlimit="10" stroke-linejoin="round"/>
<path d="M51.585 660.544H98.9347L84.9458 603.101L51.585 660.544Z" stroke="#938D8D" stroke-opacity="0.15" stroke-miterlimit="10" stroke-linejoin="round"/>
<path d="M109.695 666.671L186.097 669.353L123.145 593.909H104.314L109.695 666.671Z" stroke="#938D8D" stroke-opacity="0.15" stroke-miterlimit="10" stroke-linejoin="round"/>
<path d="M109.156 584.719L94.0901 554.465L60.0112 536.392L100.3 509.3L124.222 584.719H109.156Z" stroke="#938D8D" stroke-opacity="0.15" stroke-miterlimit="10" stroke-linejoin="round"/>
<path d="M-52.02 605.242L-84.5376 573.612L4.50704 528.04L18.3029 550.672L-52.02 605.242Z" stroke="#938D8D" stroke-opacity="0.15" stroke-miterlimit="10" stroke-linejoin="round"/>
<path d="M-63.0171 489.744L-26.9689 431.151L77.9496 489.744L29.7784 531.25L-63.0171 489.744Z" stroke="#938D8D" stroke-opacity="0.15" stroke-miterlimit="10" stroke-linejoin="round"/>
<path d="M-30.1978 325.839L-18.8989 428.853L63.4219 467.916L145.204 411.621L129.064 370.643L145.811 365.666L135.521 315.115L-30.1978 325.839Z" stroke="#938D8D" stroke-opacity="0.15" stroke-miterlimit="10" stroke-linejoin="round"/>
<path d="M72.9722 470.117L88.9413 479.923L178.092 418.705L166.793 387.543H151.863L142.18 379.93L151.662 418.418L72.9722 470.117Z" stroke="#938D8D" stroke-opacity="0.15" stroke-miterlimit="10" stroke-linejoin="round"/>
<path d="M199.547 408.175L172.108 315.115L259.809 299.797L276.488 343.454L199.547 408.175Z" stroke="#938D8D" stroke-opacity="0.15" stroke-miterlimit="10" stroke-linejoin="round"/>
<path d="M138.75 219.757L229.677 206.354L256.042 289.841L165.112 304.391L138.75 219.757Z" stroke="#938D8D" stroke-opacity="0.15" stroke-miterlimit="10" stroke-linejoin="round"/>
<path d="M288.861 333.881L250.662 227.418L322.067 213.587L400.602 234.56L288.861 333.881Z" stroke="#938D8D" stroke-opacity="0.15" stroke-miterlimit="10" stroke-linejoin="round"/>
<path d="M250.662 219.757L241.245 201.758L266.179 199.106L307.814 210.701L250.662 219.757Z" stroke="#938D8D" stroke-opacity="0.15" stroke-miterlimit="10" stroke-linejoin="round"/>
<path d="M134.444 212.098L118.839 153.651L241.245 193.908L134.444 212.098Z" stroke="#938D8D" stroke-opacity="0.15" stroke-miterlimit="10" stroke-linejoin="round"/>
<path d="M76.2007 261.883L113.326 259.873L110.905 250.97L132.293 248.385L112.518 176.579L57.8081 185.482L76.2007 261.883Z" stroke="#938D8D" stroke-opacity="0.15" stroke-miterlimit="10" stroke-linejoin="round"/>
<path d="M80.6396 271.075L112.923 267.629L125.533 306.978H87.0969L80.6396 271.075Z" stroke="#938D8D" stroke-opacity="0.15" stroke-miterlimit="10" stroke-linejoin="round"/>
<path d="M-30.1975 319.041L-41.2271 287.302L-89.314 267.629L57.8081 255.374L72.9721 308.701L-30.1975 319.041Z" stroke="#938D8D" stroke-opacity="0.15" stroke-miterlimit="10" stroke-linejoin="round"/>
<path d="M-89.3141 260.16L-95.3008 213.343L43.5144 189.792L60.868 248.385L-89.3141 260.16Z" stroke="#938D8D" stroke-opacity="0.15" stroke-miterlimit="10" stroke-linejoin="round"/>
<path d="M-91.2642 198.696L-57.6994 88.6921L103.088 149.581L106.064 169.398L-91.2642 198.696Z" stroke="#938D8D" stroke-opacity="0.15" stroke-miterlimit="10" stroke-linejoin="round"/>
<path d="M-91.7105 55.9232L-97.2402 44.0439L81.9724 99.8375L68.522 117.802L-91.7105 55.9232Z" stroke="#938D8D" stroke-opacity="0.15" stroke-miterlimit="10" stroke-linejoin="round"/>
<path d="M79.3887 121.774L93.2172 103.32L295.501 165.958L282.809 185.372L79.3887 121.774Z" stroke="#938D8D" stroke-opacity="0.15" stroke-miterlimit="10" stroke-linejoin="round"/>
<path d="M296.251 189.047L308.388 169.95L339.336 179.533L328.674 197.894L296.251 189.047Z" stroke="#938D8D" stroke-opacity="0.15" stroke-miterlimit="10" stroke-linejoin="round"/>
<path d="M334.865 200.419L346.844 181.858L421.625 205.015L409.115 217.651L334.865 200.419Z" stroke="#938D8D" stroke-opacity="0.15" stroke-miterlimit="10" stroke-linejoin="round"/>
<path d="M144.176 111.603L179.64 123.157L206.85 87.1742L173.89 72.5709L144.176 111.603Z" stroke="#938D8D" stroke-opacity="0.15" stroke-miterlimit="10" stroke-linejoin="round"/>
<path d="M184.903 124.971L250.662 146.135L259.001 132.922L225.912 113.105L227.123 96.1573L212.087 89.4955L184.903 124.971Z" stroke="#938D8D" stroke-opacity="0.15" stroke-miterlimit="10" stroke-linejoin="round"/>
<path d="M259.001 149.295L329.215 164.229L272.049 133.783L259.001 149.295Z" stroke="#938D8D" stroke-opacity="0.15" stroke-miterlimit="10" stroke-linejoin="round"/>
<path d="M344.986 172.949L362.666 145.684L448.574 182.952L433.16 195.213L344.986 172.949Z" stroke="#938D8D" stroke-opacity="0.15" stroke-miterlimit="10" stroke-linejoin="round"/>
<path d="M-33.1567 53.3619L27.3741 73.4673L70.6412 26.8174L9.59894 -0.2304L-33.1567 53.3619Z" stroke="#938D8D" stroke-opacity="0.15" stroke-miterlimit="10" stroke-linejoin="round"/>
<path d="M79.0648 30.5501L102.367 40.8767L66.0686 85.9642L38.583 76.9405L79.0648 30.5501Z" stroke="#938D8D" stroke-opacity="0.15" stroke-miterlimit="10" stroke-linejoin="round"/>
<path d="M108.267 43.2889L129.398 52.8547L95.5207 95.6326L73.0508 88.2564L108.267 43.2889Z" stroke="#938D8D" stroke-opacity="0.15" stroke-miterlimit="10" stroke-linejoin="round"/>
<path d="M135.573 55.5904L163.989 68.184L133.984 108.257L102.968 98.0759L135.573 55.5904Z" stroke="#938D8D" stroke-opacity="0.15" stroke-miterlimit="10" stroke-linejoin="round"/>
<path d="M29.3921 -1.78311L78.6214 -56.0686L384.499 87.2535L322.758 150.634L232.772 107.072L241.245 94.7226L29.3921 -1.78311Z" stroke="#938D8D" stroke-opacity="0.15" stroke-miterlimit="10" stroke-linejoin="round"/>
<path d="M106.063 -62.0992L273.931 11.7146L299.355 -54.3455L106.063 -62.0992Z" stroke="#938D8D" stroke-opacity="0.15" stroke-miterlimit="10" stroke-linejoin="round"/>
<path d="M282.809 9.70504L299.355 -14.4214L368.359 9.70504L334.864 43.5967L282.809 9.70504Z" stroke="#938D8D" stroke-opacity="0.15" stroke-miterlimit="10" stroke-linejoin="round"/>
<path d="M354.639 51.3524L377.237 17.4608L428.082 42.1603L398.624 78.9249L354.639 51.3524Z" stroke="#938D8D" stroke-opacity="0.15" stroke-miterlimit="10" stroke-linejoin="round"/>
<path d="M313.882 -25.1913L317.108 -53.4839L436.957 -57.7916L443.012 0.801514L376.429 -0.921555L313.882 -25.1913Z" stroke="#938D8D" stroke-opacity="0.15" stroke-miterlimit="10" stroke-linejoin="round"/>
<path d="M388.536 8.55508L413.554 17.4607L438.573 5.109L388.536 8.55508Z" stroke="#938D8D" stroke-opacity="0.15" stroke-miterlimit="10" stroke-linejoin="round"/>
<path d="M477.716 -16.7193L503.945 -56.0686L650.284 18.0938L613.303 55.6599L477.716 -16.7193Z" stroke="#938D8D" stroke-opacity="0.15" stroke-miterlimit="10" stroke-linejoin="round"/>
<path d="M529.366 -57.7915L679.078 -51.4724L683.919 -10.6867L658.901 13.4397L529.366 -57.7915Z" stroke="#938D8D" stroke-opacity="0.15" stroke-miterlimit="10" stroke-linejoin="round"/>
<path d="M694.816 5.10913V-16.1443H794.085V-0.203289L694.816 5.10913Z" stroke="#938D8D" stroke-opacity="0.15" stroke-miterlimit="10" stroke-linejoin="round"/>
<path d="M224.297 675.192C224.297 675.192 200.138 661.462 194.167 655.564C134.444 596.588 108.346 503.829 108.346 503.829L210.308 526.509L220.529 544.508L224.297 675.192Z" stroke="#938D8D" stroke-opacity="0.15" stroke-miterlimit="10" stroke-linejoin="round"/>
<path d="M241.65 592.474L230.351 551.688L263.239 538.189L297.739 542.785L285.635 591.276L241.65 592.474Z" stroke="#938D8D" stroke-opacity="0.15" stroke-miterlimit="10" stroke-linejoin="round"/>
<path d="M238.824 599.08H284.422L276.488 631.632L230.351 650.779L238.824 599.08Z" stroke="#938D8D" stroke-opacity="0.15" stroke-miterlimit="10" stroke-linejoin="round"/>
<path d="M230.351 675.192V662.842L284.422 640.727L321.952 647.906L315.898 684.384L230.351 675.192Z" stroke="#938D8D" stroke-opacity="0.15" stroke-miterlimit="10" stroke-linejoin="round"/>
<path d="M284.422 634.694L293.706 599.08L371.587 609.131L360.691 688.405L328.407 685.82L335.673 640.727L284.422 634.694Z" stroke="#938D8D" stroke-opacity="0.15" stroke-miterlimit="10" stroke-linejoin="round"/>
<path d="M295.721 593.909L371.587 599.08V558.007L307.828 544.221L295.721 593.909Z" stroke="#938D8D" stroke-opacity="0.15" stroke-miterlimit="10" stroke-linejoin="round"/>
<path d="M257.388 507.36L276.488 527.848L297.739 536.752L309.846 486.49H297.739L257.388 507.36Z" stroke="#938D8D" stroke-opacity="0.15" stroke-miterlimit="10" stroke-linejoin="round"/>
<path d="M117.86 497.356L212.595 513.201L224.297 507.025L209.367 464.373L224.297 456.906L230.351 503.147L312.267 473.565L299.312 417.942L220.712 427.405L117.86 497.356Z" stroke="#938D8D" stroke-opacity="0.15" stroke-miterlimit="10" stroke-linejoin="round"/>
<path d="M323.767 499.701L307.828 416.981L384.096 403.484L379.252 504.01L323.767 499.701Z" stroke="#938D8D" stroke-opacity="0.15" stroke-miterlimit="10" stroke-linejoin="round"/>
<path d="M319.934 507.36L307.828 538.189L371.587 547.379L380.06 511.621L319.934 507.36Z" stroke="#938D8D" stroke-opacity="0.15" stroke-miterlimit="10" stroke-linejoin="round"/>
<path d="M380.06 688.405V636.417L426.782 643.921L417.528 690.287L380.06 688.405Z" stroke="#938D8D" stroke-opacity="0.15" stroke-miterlimit="10" stroke-linejoin="round"/>
<path d="M384.097 630.098L385.911 608.27L432.521 615.164L427.978 637.916L384.097 630.098Z" stroke="#938D8D" stroke-opacity="0.15" stroke-miterlimit="10" stroke-linejoin="round"/>
<path d="M388.737 602.812V562.028L432.521 565.331V602.812H388.737Z" stroke="#938D8D" stroke-opacity="0.15" stroke-miterlimit="10" stroke-linejoin="round"/>
<path d="M385.911 547.379L432.521 555.135V516.074L395.395 511.621L385.911 547.379Z" stroke="#938D8D" stroke-opacity="0.15" stroke-miterlimit="10" stroke-linejoin="round"/>
<path d="M397.008 504.011L432.521 507.36V470.979L397.008 463.511V504.011Z" stroke="#938D8D" stroke-opacity="0.15" stroke-miterlimit="10" stroke-linejoin="round"/>
<path d="M397.008 457.481V403.484L432.521 398.599V461.213L397.008 457.481Z" stroke="#938D8D" stroke-opacity="0.15" stroke-miterlimit="10" stroke-linejoin="round"/>
<path d="M285.439 372.651L233.463 417.402L320.068 406.833L285.439 372.651Z" stroke="#938D8D" stroke-opacity="0.15" stroke-miterlimit="10" stroke-linejoin="round"/>
<path d="M297.902 361.922L337.824 398.599L397.008 365.474L353.192 314.317L297.902 361.922Z" stroke="#938D8D" stroke-opacity="0.15" stroke-miterlimit="10" stroke-linejoin="round"/>
<path d="M360.792 307.776L382.609 288.99L432.521 326.22V348.05L409.654 359.347L360.792 307.776Z" stroke="#938D8D" stroke-opacity="0.15" stroke-miterlimit="10" stroke-linejoin="round"/>
<path d="M363.292 397.122L432.521 389.74L432.219 358.389L363.292 397.122Z" stroke="#938D8D" stroke-opacity="0.15" stroke-miterlimit="10" stroke-linejoin="round"/>
<path d="M393.66 279.475L434.713 311.376L441.32 266.684L430.44 247.808L393.66 279.475Z" stroke="#938D8D" stroke-opacity="0.15" stroke-miterlimit="10" stroke-linejoin="round"/>
<path d="M461.899 253.897L443.893 227.989L448.123 210.95L500.85 212.098L513.4 252.487L461.899 253.897Z" stroke="#938D8D" stroke-opacity="0.15" stroke-miterlimit="10" stroke-linejoin="round"/>
<path d="M468.066 263.457L467.94 312.13L507.038 308.796L505.425 261.118L468.066 263.457Z" stroke="#938D8D" stroke-opacity="0.15" stroke-miterlimit="10" stroke-linejoin="round"/>
<path d="M507.038 210.95L515.916 222.247L521.566 253.651L571.872 234.502L553.58 209.036L507.038 210.95Z" stroke="#938D8D" stroke-opacity="0.15" stroke-miterlimit="10" stroke-linejoin="round"/>
<path d="M584.517 231.342L567.299 209.036L634.554 212.482L584.517 231.342Z" stroke="#938D8D" stroke-opacity="0.15" stroke-miterlimit="10" stroke-linejoin="round"/>
<path d="M588.015 240.246L621.642 279.117H646.122L638.052 219.184L588.015 240.246Z" stroke="#938D8D" stroke-opacity="0.15" stroke-miterlimit="10" stroke-linejoin="round"/>
<path d="M516.993 304.583V263.608L577.252 242.927L607.115 281.415L588.015 282.277L516.993 304.583Z" stroke="#938D8D" stroke-opacity="0.15" stroke-miterlimit="10" stroke-linejoin="round"/>
<path d="M520.758 377.729L515.916 316.646L596.621 290.413L602.271 368.347L520.758 377.729Z" stroke="#938D8D" stroke-opacity="0.15" stroke-miterlimit="10" stroke-linejoin="round"/>
<path d="M469.913 385.005L506.956 380.416L504.56 318.592L468.063 317.628L469.913 385.005Z" stroke="#938D8D" stroke-opacity="0.15" stroke-miterlimit="10" stroke-linejoin="round"/>
<path d="M609.669 286.298H646.122L649.822 359.538L617.067 366.144L609.669 286.298Z" stroke="#938D8D" stroke-opacity="0.15" stroke-miterlimit="10" stroke-linejoin="round"/>
<path d="M658.901 329.668L706.517 284.575L658.901 286.873V329.668Z" stroke="#938D8D" stroke-opacity="0.15" stroke-miterlimit="10" stroke-linejoin="round"/>
<path d="M665.56 359.252V340.151L709.343 303.1V352.358L665.56 359.252Z" stroke="#938D8D" stroke-opacity="0.15" stroke-miterlimit="10" stroke-linejoin="round"/>
<path d="M723.667 343.454L719.026 293.765L737.993 270.07L767.853 264.612L778.548 338.572L723.667 343.454Z" stroke="#938D8D" stroke-opacity="0.15" stroke-miterlimit="10" stroke-linejoin="round"/>
<path d="M458.344 201.569L639.665 194.674L591.779 100.659L458.344 201.569Z" stroke="#938D8D" stroke-opacity="0.15" stroke-miterlimit="10" stroke-linejoin="round"/>
<path d="M457.64 175.468L370.377 136.943L450.005 49.916L419.204 27.226L455.521 5.10922L589.9 76.1526L457.64 175.468Z" stroke="#938D8D" stroke-opacity="0.15" stroke-miterlimit="10" stroke-linejoin="round"/>
<path d="M652.31 189.695L606.644 103.721L624.332 102.765L735.167 151.112V171.315L703.424 171.504L702.617 187.207L652.31 189.695Z" stroke="#938D8D" stroke-opacity="0.15" stroke-miterlimit="10" stroke-linejoin="round"/>
<path d="M623.255 94.7227L741.624 142.784V66.9566L623.255 94.7227Z" stroke="#938D8D" stroke-opacity="0.15" stroke-miterlimit="10" stroke-linejoin="round"/>
<path d="M623.255 81.5095L798.521 40.4373L795.714 9.70719L688.84 14.7621L623.255 81.5095Z" stroke="#938D8D" stroke-opacity="0.15" stroke-miterlimit="10" stroke-linejoin="round"/>
<path d="M810.628 -10.1135L821.119 76.052L914.336 66.9567L902.635 -16.1441L810.628 -10.1135Z" stroke="#938D8D" stroke-opacity="0.15" stroke-miterlimit="10" stroke-linejoin="round"/>
<path d="M658.901 277.105L716.203 274.378L706.517 210.327H655.874L658.901 277.105Z" stroke="#938D8D" stroke-opacity="0.15" stroke-miterlimit="10" stroke-linejoin="round"/>
<path d="M726.292 258.82L716.203 178.015L848.964 171.123L862.482 253.651L726.292 258.82Z" stroke="#938D8D" stroke-opacity="0.15" stroke-miterlimit="10" stroke-linejoin="round"/>
<path d="M794.085 334.072L782.786 264.612L882.86 258.82L866.72 171.123L928.594 168.442L953.074 321.626L794.085 334.072Z" stroke="#938D8D" stroke-opacity="0.15" stroke-miterlimit="10" stroke-linejoin="round"/>
<path d="M754.27 168.442V66.9565L798.521 55.66L803.768 91.2746L917.159 79.2114L925.366 159.633L754.27 168.442Z" stroke="#938D8D" stroke-opacity="0.15" stroke-miterlimit="10" stroke-linejoin="round"/>
<path d="M439.96 690.128H456.193L502.735 591.324L471.071 584.188V596.046L439.96 690.128Z" stroke="#938D8D" stroke-opacity="0.15" stroke-miterlimit="10" stroke-linejoin="round"/>
<path d="M495.761 569.424L494.7 473.834L471.071 476.86L471.202 565.202L495.761 569.424Z" stroke="#938D8D" stroke-opacity="0.15" stroke-miterlimit="10" stroke-linejoin="round"/>
<path d="M471.071 469.964L493.851 466.576L493.68 388.53L469.708 391.802L471.071 469.964Z" stroke="#938D8D" stroke-opacity="0.15" stroke-miterlimit="10" stroke-linejoin="round"/>
<path d="M464.802 696.447L588.687 720.19L787.222 686.393L464.802 696.447Z" stroke="#938D8D" stroke-opacity="0.15" stroke-miterlimit="10" stroke-linejoin="round"/>
<path d="M477.716 667.725L543.086 679.501L538.647 646.758L560.44 619.758L548.333 587.303L519.912 586.55L477.716 667.725Z" stroke="#938D8D" stroke-opacity="0.15" stroke-miterlimit="10" stroke-linejoin="round"/>
<path d="M554.385 682.756L550.754 649.056L595.816 585.005L794.327 569.252L817.085 672.607L554.385 682.756Z" stroke="#938D8D" stroke-opacity="0.15" stroke-miterlimit="10" stroke-linejoin="round"/>
<path d="M592.318 576.676L565.281 470.117L784.374 467.565L793.418 563.045L592.318 576.676Z" stroke="#938D8D" stroke-opacity="0.15" stroke-miterlimit="10" stroke-linejoin="round"/>
<path d="M519.746 578.113H571.738L559.093 501.999H532.595L530.174 562.029L519.746 578.113Z" stroke="#938D8D" stroke-opacity="0.15" stroke-miterlimit="10" stroke-linejoin="round"/>
<path d="M537.842 495.097H556.001V474.138H539.455L537.842 495.097Z" stroke="#938D8D" stroke-opacity="0.15" stroke-miterlimit="10" stroke-linejoin="round"/>
<path d="M567.569 616.312L559.499 587.303H584.517L567.569 616.312Z" stroke="#938D8D" stroke-opacity="0.15" stroke-miterlimit="10" stroke-linejoin="round"/>
<path d="M532.864 460.832H552.502L531.341 407.059L532.864 460.832Z" stroke="#938D8D" stroke-opacity="0.15" stroke-miterlimit="10" stroke-linejoin="round"/>
<path d="M559.093 459.107L549.543 430.578L611.957 419.663L613.839 458.151L559.093 459.107Z" stroke="#938D8D" stroke-opacity="0.15" stroke-miterlimit="10" stroke-linejoin="round"/>
<path d="M549.544 421.002L545.776 407.6L606.038 403.387V412.196L549.544 421.002Z" stroke="#938D8D" stroke-opacity="0.15" stroke-miterlimit="10" stroke-linejoin="round"/>
<path d="M623.256 459.107L621.104 417.365L654.731 414.875V457.576L623.256 459.107Z" stroke="#938D8D" stroke-opacity="0.15" stroke-miterlimit="10" stroke-linejoin="round"/>
<path d="M622.447 409.514V398.026L654.731 391.707V410.281L622.447 409.514Z" stroke="#938D8D" stroke-opacity="0.15" stroke-miterlimit="10" stroke-linejoin="round"/>
<path d="M667.912 453.938V417.173L715.259 414.875V453.171L667.912 453.938Z" stroke="#938D8D" stroke-opacity="0.15" stroke-miterlimit="10" stroke-linejoin="round"/>
<path d="M667.912 407.983V389.409L693.469 391.707L710.687 385.196L713.377 407.983H667.912Z" stroke="#938D8D" stroke-opacity="0.15" stroke-miterlimit="10" stroke-linejoin="round"/>
<path d="M732.746 452.598L721.986 413.344H760.724L764.491 450.873L732.746 452.598Z" stroke="#938D8D" stroke-opacity="0.15" stroke-miterlimit="10" stroke-linejoin="round"/>
<path d="M771.487 449.15L768.258 407.983H782.786L784.129 449.15H771.487Z" stroke="#938D8D" stroke-opacity="0.15" stroke-miterlimit="10" stroke-linejoin="round"/>
<path d="M723.332 403.77L721.986 382.325H732.746L754.539 374.091L758.573 403.77H723.332Z" stroke="#938D8D" stroke-opacity="0.15" stroke-miterlimit="10" stroke-linejoin="round"/>
<path d="M768.258 403.77L763.414 374.856L780.093 367.581L781.17 403.77H768.258Z" stroke="#938D8D" stroke-opacity="0.15" stroke-miterlimit="10" stroke-linejoin="round"/>
<path d="M637.916 968V917.701L401.045 873.136L417.185 767.39L425.658 694.54L456.193 594.836V264.612L434.942 235.224L230.351 181.366L98.9345 138.908L-17.215 94.38L-92.7793 60.7981" stroke="#938D8D" stroke-opacity="0.15" stroke-width="5" stroke-miterlimit="10"/>
<path d="M-92.7793 577.704L-43.0414 628.567L-30.1975 599.271L39.2114 551.018L47.5999 528.04L212.614 417.853L370.377 283.947L418.426 239.419L428.082 212.098L613.839 73.2446L686.038 -7.6802e-05L690.646 -22.1769L798.521 -24.5234L816 -16.1444L900.211 -19.3601" stroke="#938D8D" stroke-opacity="0.15" stroke-width="5" stroke-miterlimit="10"/>
<path d="M970.831 975.337V884.479L835.04 669.448L807.535 555.134L789.341 349.125L562.053 391.707H507.038V582.42L456.193 571.65" stroke="#938D8D" stroke-opacity="0.15" stroke-width="5" stroke-miterlimit="10"/>
<path d="M835.04 669.447L1124.58 665.14L1349.34 667.295L1375.98 674.713H1426.28" stroke="#938D8D" stroke-opacity="0.15" stroke-width="5" stroke-miterlimit="10"/>
</g>
</g>
<defs>
<clipPath id="clip0_282_655">
<rect width="968" height="1360" fill="white" transform="matrix(0 -1 1 0 0 968)"/>
</clipPath>
</defs>
</svg>
