<svg width="40" height="34" viewBox="0 0 40 34" fill="none" xmlns="http://www.w3.org/2000/svg">
<path d="M26.6666 23.4126L19.9999 16.7459M19.9999 16.7459L13.3333 23.4126M19.9999 16.7459V31.7459M33.9833 27.3959C35.6088 26.5097 36.893 25.1074 37.6331 23.4103C38.3731 21.7132 38.527 19.818 38.0703 18.0237C37.6136 16.2295 36.5724 14.6384 35.111 13.5016C33.6497 12.3649 31.8514 11.7471 29.9999 11.7459H27.8999C27.3955 9.79464 26.4552 7.98313 25.1498 6.44756C23.8445 4.91199 22.208 3.69232 20.3634 2.88025C18.5189 2.06818 16.5142 1.68484 14.5001 1.75904C12.4861 1.83325 10.515 2.36307 8.73523 3.30868C6.95541 4.25429 5.41312 5.59108 4.2243 7.21854C3.03549 8.84601 2.23108 10.7218 1.87157 12.7049C1.51205 14.688 1.60678 16.7268 2.14862 18.668C2.69047 20.6092 3.66534 22.4023 4.99993 23.9126" stroke="#1E1E1E" stroke-width="3.5" stroke-linecap="round" stroke-linejoin="round"/>
</svg>
